<?xml version="1.0" encoding="utf-8"?>
<!-- Generator: Adobe Illustrator 16.0.0, SVG Export Plug-In . SVG Version: 6.00 Build 0)  -->
<!DOCTYPE svg PUBLIC "-//W3C//DTD SVG 1.1//EN" "http://www.w3.org/Graphics/SVG/1.1/DTD/svg11.dtd">
<svg version="1.1" id="Layer_1" xmlns="http://www.w3.org/2000/svg" xmlns:xlink="http://www.w3.org/1999/xlink" x="0px" y="0px"
	 width="32px" height="32px" viewBox="0 0 32 32" enable-background="new 0 0 32 32" xml:space="preserve">
<g id="BG" display="none">
	<rect x="0.003" y="-0.062" display="inline" width="32" height="32.125"/>
</g>
<g id="guide">
</g>
<g>
	<polygon fill="#FFBB00" points="12.135,4.254 16.026,2.008 19.919,4.254 19.919,13.756 16.026,16 12.135,13.756 	"/>
	<g>
		<polygon fill="#FFBB00" points="16.026,20.479 19.903,18.24 16.026,16 12.155,18.24 		"/>
		<polygon fill="#FFBB00" points="16.026,26.533 12.135,24.283 12.135,27.75 16.026,30 19.919,27.75 19.919,24.283 		"/>
	</g>
	<polygon fill="#FFBB00" points="28.264,18.039 16.026,25.106 3.79,18.039 3.79,14.809 16.026,21.876 28.264,14.809 	"/>
	<g>
		<polygon fill="#FFBB00" points="10.794,10.758 3.795,14.809 3.795,18.039 10.794,13.992 		"/>
		<polygon fill="#FFBB00" points="21.172,10.758 21.172,13.992 28.269,18.039 28.269,14.809 		"/>
	</g>
</g>
</svg>
