<?xml version="1.0" encoding="utf-8"?>
<!-- Generator: Adobe Illustrator 16.0.0, SVG Export Plug-In . SVG Version: 6.00 Build 0)  -->
<!DOCTYPE svg PUBLIC "-//W3C//DTD SVG 1.1//EN" "http://www.w3.org/Graphics/SVG/1.1/DTD/svg11.dtd">
<svg version="1.1" id="Layer_1" xmlns="http://www.w3.org/2000/svg" xmlns:xlink="http://www.w3.org/1999/xlink" x="0px" y="0px"
	 width="32px" height="32px" viewBox="0 0 32 32" enable-background="new 0 0 32 32" xml:space="preserve">
<g id="BG" display="none">
	<rect x="0.003" y="-0.062" display="inline" width="32" height="32.125"/>
</g>
<g id="guide">
</g>
<path fill="#FFBB00" d="M15.945,4.013C9.346,4.013,4,9.361,4,15.958c0,6.598,5.346,11.946,11.945,11.946
	c6.594,0,11.943-5.348,11.943-11.946C27.889,9.361,22.539,4.013,15.945,4.013z M15.945,24.402c-4.664,0-8.441-3.781-8.441-8.444
	c0-4.662,3.777-8.443,8.441-8.443c4.662,0,8.445,3.781,8.445,8.443C24.391,20.621,20.607,24.402,15.945,24.402z"/>
<path fill="#FFBB00" d="M28.33,8.529c0,2.684-2.178,4.857-4.857,4.857c-2.686,0-4.863-2.174-4.863-4.857
	c0-2.686,2.178-4.859,4.863-4.859C26.152,3.669,28.33,5.843,28.33,8.529z"/>
</svg>
